HIERARCHY
ROOT newVegas:Hips
{
	OFFSET 0.000000 96.479958 0.000000
	CHANNELS 6 Xposition Yposition Zposition Xrotation Yrotation Zrotation
	JOINT newVegas:Pelvis
	{
		OFFSET 0.000000 0.000000 0.000000
		CHANNELS 3 Xrotation Yrotation Zrotation
		JOINT newVegas:LeftUpLeg
		{
			OFFSET 18.735201 -5.666702 -4.541200
			CHANNELS 3 Xrotation Yrotation Zrotation
			JOINT newVegas:LeftLeg
			{
				OFFSET -0.021200 -31.938179 0.493100
				CHANNELS 3 Xrotation Yrotation Zrotation
				JOINT newVegas:LeftFoot
				{
					OFFSET 0.021200 -31.938179 -4.336299
					CHANNELS 3 Xrotation Yrotation Zrotation
					JOINT newVegas:LeftToeBase
					{
						OFFSET 0.943001 -26.722000 15.023500
						CHANNELS 3 Xrotation Yrotation Zrotation
						End Site
						{
							OFFSET 0.000000 30.670183 0.000000
						}
					}
				}
				JOINT newVegas:Left_PantLeg
				{
					OFFSET 0.663870 -9.044666 -1.108900
					CHANNELS 3 Xrotation Yrotation Zrotation
					End Site
					{
						OFFSET 1.415995 20.635357 0.000000
					}
				}
			}
		}
		JOINT newVegas:RightUpLeg
		{
			OFFSET -18.735201 -5.666702 -4.541200
			CHANNELS 3 Xrotation Yrotation Zrotation
			JOINT newVegas:RightLeg
			{
				OFFSET 0.018946 -31.938133 0.493100
				CHANNELS 3 Xrotation Yrotation Zrotation
				JOINT newVegas:RightFoot
				{
					OFFSET -0.018946 -31.938126 -4.336299
					CHANNELS 3 Xrotation Yrotation Zrotation
					JOINT newVegas:RightToeBase
					{
						OFFSET -0.943001 -26.722004 15.023500
						CHANNELS 3 Xrotation Yrotation Zrotation
						End Site
						{
							OFFSET 0.000000 30.670187 0.000000
						}
					}
				}
				JOINT newVegas:Right_PantLeg
				{
					OFFSET -0.661674 -9.044716 -1.108900
					CHANNELS 3 Xrotation Yrotation Zrotation
					End Site
					{
						OFFSET -1.415958 20.635269 0.000000
					}
				}
			}
		}
	}
	JOINT newVegas:Spine
	{
		OFFSET 0.000000 10.199997 -0.299500
		CHANNELS 3 Xrotation Yrotation Zrotation
		JOINT newVegas:Spine1
		{
			OFFSET 0.000000 11.900002 -1.516600
			CHANNELS 3 Xrotation Yrotation Zrotation
			JOINT newVegas:Spine2
			{
				OFFSET 0.000000 13.600006 -2.842500
				CHANNELS 3 Xrotation Yrotation Zrotation
				JOINT newVegas:Neck
				{
					OFFSET 0.000000 9.624100 -2.890100
					CHANNELS 3 Xrotation Yrotation Zrotation
					JOINT newVegas:Head
					{
						OFFSET 0.000000 14.068802 -1.351900
						CHANNELS 3 Xrotation Yrotation Zrotation
						JOINT newVegas:Hair_Back
						{
							OFFSET 0.000000 3.231903 -17.524799
							CHANNELS 3 Xrotation Yrotation Zrotation
							End Site
							{
								OFFSET 0.000000 19.849884 0.000000
							}
						}
						JOINT newVegas:Hair_Front
						{
							OFFSET 0.000000 31.260406 4.573800
							CHANNELS 3 Xrotation Yrotation Zrotation
							JOINT newVegas:Hair_Front1
							{
								OFFSET 0.000000 2.284103 11.993300
								CHANNELS 3 Xrotation Yrotation Zrotation
								JOINT newVegas:Hair_Front2
								{
									OFFSET 0.000000 2.284103 11.993300
									CHANNELS 3 Xrotation Yrotation Zrotation
									End Site
									{
										OFFSET 0.000000 12.208862 0.000000
									}
								}
							}
						}
						JOINT newVegas:Jowel
						{
							OFFSET 0.000000 -7.458206 6.864100
							CHANNELS 3 Xrotation Yrotation Zrotation
							End Site
							{
								OFFSET 0.000000 19.849884 0.000000
							}
						}
					}
				}
				JOINT newVegas:LeftShoulder
				{
					OFFSET 15.263000 10.923401 -0.547700
					CHANNELS 3 Xrotation Yrotation Zrotation
					JOINT newVegas:LeftArm
					{
						OFFSET 25.438599 -2.830597 -13.032500
						CHANNELS 3 Xrotation Yrotation Zrotation
						JOINT newVegas:LeftForeArm
						{
							OFFSET 29.960503 0.000000 0.000000
							CHANNELS 3 Xrotation Yrotation Zrotation
							JOINT newVegas:LeftHand
							{
								OFFSET 27.849251 0.000000 0.000000
								CHANNELS 3 Xrotation Yrotation Zrotation
								JOINT newVegas:LeftHandThumb1
								{
									OFFSET 4.487587 -3.305161 6.305391
									CHANNELS 3 Xrotation Yrotation Zrotation
									JOINT newVegas:LeftHandThumb2
									{
										OFFSET 5.480453 -3.164139 3.164143
										CHANNELS 3 Xrotation Yrotation Zrotation
										JOINT newVegas:LeftHandThumb3
										{
											OFFSET 5.159721 -2.978973 2.978967
											CHANNELS 3 Xrotation Yrotation Zrotation
											End Site
											{
												OFFSET 2.494507 5.926697 1.738678
											}
										}
									}
								}
								JOINT newVegas:LeftHandIndex1
								{
									OFFSET 18.578728 -0.527832 5.208049
									CHANNELS 3 Xrotation Yrotation Zrotation
									JOINT newVegas:LeftHandIndex2
									{
										OFFSET 3.192009 0.000000 0.000000
										CHANNELS 3 Xrotation Yrotation Zrotation
										JOINT newVegas:LeftHandIndex3
										{
											OFFSET 3.835129 0.000000 0.000000
											CHANNELS 3 Xrotation Yrotation Zrotation
											End Site
											{
												OFFSET -0.034599 3.816971 0.371180
											}
										}
									}
								}
								JOINT newVegas:LeftHandMiddle1
								{
									OFFSET 18.476105 0.000000 0.000000
									CHANNELS 3 Xrotation Yrotation Zrotation
									JOINT newVegas:LeftHandMiddle2
									{
										OFFSET 3.324875 0.000000 0.000000
										CHANNELS 3 Xrotation Yrotation Zrotation
										JOINT newVegas:LeftHandMiddle3
										{
											OFFSET 4.596550 0.000000 0.000000
											CHANNELS 3 Xrotation Yrotation Zrotation
											End Site
											{
												OFFSET 0.057701 4.578827 0.399218
											}
										}
									}
								}
								JOINT newVegas:LeftHandRing1
								{
									OFFSET 17.732719 0.121887 -4.201567
									CHANNELS 3 Xrotation Yrotation Zrotation
									JOINT newVegas:LeftHandRing2
									{
										OFFSET 2.733170 0.000000 0.000000
										CHANNELS 3 Xrotation Yrotation Zrotation
										JOINT newVegas:LeftHandRing3
										{
											OFFSET 3.178268 0.000000 0.000000
											CHANNELS 3 Xrotation Yrotation Zrotation
											End Site
											{
												OFFSET 0.119102 3.170624 0.185394
											}
										}
									}
								}
								JOINT newVegas:LeftHandPinky1
								{
									OFFSET 15.989624 -0.606689 -7.535461
									CHANNELS 3 Xrotation Yrotation Zrotation
									JOINT newVegas:LeftHandPinky2
									{
										OFFSET 2.538986 0.000000 0.000000
										CHANNELS 3 Xrotation Yrotation Zrotation
										JOINT newVegas:LeftHandPinky3
										{
											OFFSET 2.593102 0.000000 0.000000
											CHANNELS 3 Xrotation Yrotation Zrotation
											End Site
											{
												OFFSET -0.150902 2.584198 0.152708
											}
										}
									}
								}
							}
							JOINT newVegas:Left_Sleeve
							{
								OFFSET 0.267448 -0.649796 0.577675
								CHANNELS 3 Xrotation Yrotation Zrotation
								End Site
								{
									OFFSET 0.000000 15.991241 0.000000
								}
							}
							JOINT newVegas:Left_CapeC
							{
								OFFSET 15.715958 -8.608795 -6.935905
								CHANNELS 3 Xrotation Yrotation Zrotation
								JOINT newVegas:Left_CapeC1
								{
									OFFSET 0.000000 -8.688499 0.000000
									CHANNELS 3 Xrotation Yrotation Zrotation
									End Site
									{
										OFFSET 0.000000 8.688499 0.000000
									}
								}
							}
						}
						JOINT newVegas:Left_CapeB
						{
							OFFSET 26.118385 -8.608795 -7.079235
							CHANNELS 3 Xrotation Yrotation Zrotation
							JOINT newVegas:Left_CapeB1
							{
								OFFSET 0.000000 -8.688499 0.000000
								CHANNELS 3 Xrotation Yrotation Zrotation
								End Site
								{
									OFFSET 0.000000 8.688499 0.000000
								}
							}
						}
						JOINT newVegas:Left_CapeA
						{
							OFFSET 5.115639 -8.608795 -10.395809
							CHANNELS 3 Xrotation Yrotation Zrotation
							JOINT newVegas:Left_CapeA1
							{
								OFFSET 0.000000 -8.688499 0.000000
								CHANNELS 3 Xrotation Yrotation Zrotation
								End Site
								{
									OFFSET 0.000000 8.688499 0.000000
								}
							}
						}
					}
				}
				JOINT newVegas:RightShoulder
				{
					OFFSET -15.263000 10.923401 -0.547700
					CHANNELS 3 Xrotation Yrotation Zrotation
					JOINT newVegas:RightArm
					{
						OFFSET -25.438599 -2.830597 -13.032500
						CHANNELS 3 Xrotation Yrotation Zrotation
						JOINT newVegas:RightForeArm
						{
							OFFSET -29.960503 0.000000 0.000000
							CHANNELS 3 Xrotation Yrotation Zrotation
							JOINT newVegas:RightHand
							{
								OFFSET -27.849251 0.000000 0.000000
								CHANNELS 3 Xrotation Yrotation Zrotation
								JOINT newVegas:RightHandThumb1
								{
									OFFSET -4.487587 -3.305161 6.305391
									CHANNELS 3 Xrotation Yrotation Zrotation
									JOINT newVegas:RightHandThumb2
									{
										OFFSET -5.480453 -3.164139 3.164143
										CHANNELS 3 Xrotation Yrotation Zrotation
										JOINT newVegas:RightHandThumb3
										{
											OFFSET -5.159721 -2.978973 2.978967
											CHANNELS 3 Xrotation Yrotation Zrotation
											End Site
											{
												OFFSET -2.494507 5.926697 1.738678
											}
										}
									}
								}
								JOINT newVegas:RightHandIndex1
								{
									OFFSET -18.578728 -0.527832 5.208049
									CHANNELS 3 Xrotation Yrotation Zrotation
									JOINT newVegas:RightHandIndex2
									{
										OFFSET -3.192009 0.000000 0.000000
										CHANNELS 3 Xrotation Yrotation Zrotation
										JOINT newVegas:RightHandIndex3
										{
											OFFSET -3.835129 0.000000 0.000000
											CHANNELS 3 Xrotation Yrotation Zrotation
											End Site
											{
												OFFSET 0.034599 3.816971 0.371180
											}
										}
									}
								}
								JOINT newVegas:RightHandMiddle1
								{
									OFFSET -18.476105 0.000000 0.000000
									CHANNELS 3 Xrotation Yrotation Zrotation
									JOINT newVegas:RightHandMiddle2
									{
										OFFSET -3.324875 0.000000 0.000000
										CHANNELS 3 Xrotation Yrotation Zrotation
										JOINT newVegas:RightHandMiddle3
										{
											OFFSET -4.596550 0.000000 0.000000
											CHANNELS 3 Xrotation Yrotation Zrotation
											End Site
											{
												OFFSET -0.057701 4.578827 0.399218
											}
										}
									}
								}
								JOINT newVegas:RightHandRing1
								{
									OFFSET -17.732719 0.121887 -4.201567
									CHANNELS 3 Xrotation Yrotation Zrotation
									JOINT newVegas:RightHandRing2
									{
										OFFSET -2.733170 0.000000 0.000000
										CHANNELS 3 Xrotation Yrotation Zrotation
										JOINT newVegas:RightHandRing3
										{
											OFFSET -3.178268 0.000000 0.000000
											CHANNELS 3 Xrotation Yrotation Zrotation
											End Site
											{
												OFFSET -0.119102 3.170624 0.185394
											}
										}
									}
								}
								JOINT newVegas:RightHandPinky1
								{
									OFFSET -15.989624 -0.606689 -7.535461
									CHANNELS 3 Xrotation Yrotation Zrotation
									JOINT newVegas:RightHandPinky2
									{
										OFFSET -2.538986 0.000000 0.000000
										CHANNELS 3 Xrotation Yrotation Zrotation
										JOINT newVegas:RightHandPinky3
										{
											OFFSET -2.593102 0.000000 0.000000
											CHANNELS 3 Xrotation Yrotation Zrotation
											End Site
											{
												OFFSET 0.150902 2.584198 0.152708
											}
										}
									}
								}
							}
							JOINT newVegas:Right_CapeC
							{
								OFFSET -15.715958 -8.608795 -6.935905
								CHANNELS 3 Xrotation Yrotation Zrotation
								JOINT newVegas:Right_CapeC1
								{
									OFFSET 0.000000 -8.688499 0.000000
									CHANNELS 3 Xrotation Yrotation Zrotation
									End Site
									{
										OFFSET 0.000000 8.688499 0.000000
									}
								}
							}
							JOINT newVegas:Right_Sleeve
							{
								OFFSET -0.267448 -0.649994 0.577675
								CHANNELS 3 Xrotation Yrotation Zrotation
								End Site
								{
									OFFSET 0.000000 15.991302 0.000000
								}
							}
						}
						JOINT newVegas:Right_CapeA
						{
							OFFSET -5.115540 -8.608795 -10.395824
							CHANNELS 3 Xrotation Yrotation Zrotation
							JOINT newVegas:Right_CapeA1
							{
								OFFSET 0.000000 -8.688499 0.000000
								CHANNELS 3 Xrotation Yrotation Zrotation
								End Site
								{
									OFFSET 0.000000 8.688499 0.000000
								}
							}
						}
						JOINT newVegas:Right_CapeB
						{
							OFFSET -26.118187 -8.608795 -7.079266
							CHANNELS 3 Xrotation Yrotation Zrotation
							JOINT newVegas:Right_CapeB1
							{
								OFFSET 0.000000 -8.688499 0.000000
								CHANNELS 3 Xrotation Yrotation Zrotation
								End Site
								{
									OFFSET 0.000000 8.688499 0.000000
								}
							}
						}
					}
				}
				JOINT newVegas:Left_Collar
				{
					OFFSET 18.625099 8.655502 8.828100
					CHANNELS 3 Xrotation Yrotation Zrotation
					JOINT newVegas:Left_Collar1
					{
						OFFSET 14.783401 10.540405 -1.259500
						CHANNELS 3 Xrotation Yrotation Zrotation
						End Site
						{
							OFFSET 0.000000 18.199875 0.000000
						}
					}
				}
				JOINT newVegas:Collar_Back
				{
					OFFSET 0.000000 15.630707 -20.132601
					CHANNELS 3 Xrotation Yrotation Zrotation
					End Site
					{
						OFFSET 0.000000 22.523010 0.000000
					}
				}
				JOINT newVegas:Left_Peck
				{
					OFFSET 17.239599 -5.132599 25.482599
					CHANNELS 3 Xrotation Yrotation Zrotation
					End Site
					{
						OFFSET 0.000000 22.523010 0.000000
					}
				}
				JOINT newVegas:Right_Peck
				{
					OFFSET -17.239599 -5.132202 25.482599
					CHANNELS 3 Xrotation Yrotation Zrotation
					End Site
					{
						OFFSET 0.000000 22.523010 0.000000
					}
				}
				JOINT newVegas:Right_Collar
				{
					OFFSET -18.625099 8.655792 8.828100
					CHANNELS 3 Xrotation Yrotation Zrotation
					JOINT newVegas:Right_Collar1
					{
						OFFSET -14.783401 10.539993 -1.259500
						CHANNELS 3 Xrotation Yrotation Zrotation
						End Site
						{
							OFFSET 0.000000 18.199631 0.000000
						}
					}
				}
			}
		}
		JOINT newVegas:Belly
		{
			OFFSET 0.000000 -6.540398 9.014299
			CHANNELS 3 Xrotation Yrotation Zrotation
			End Site
			{
				OFFSET 0.000000 11.566666 0.000000
			}
		}
	}
	JOINT newVegas:ElvisFacialAnim_Joint
	{
		OFFSET 1.000000 -95.330101 -8.825800
		CHANNELS 3 Xrotation Yrotation Zrotation
		End Site
		{
			OFFSET 0.000000 35.315800 0.000000
		}
	}
}
MOTION
Frames: 4
Frame Time: 0.016667
4.287617 59.248276 120.447243 26.730531 -56.204790 32.936699 0.000001 0.000001 -0.000001 -58.456399 -48.651499 41.480630 83.713462 -1.680196 -42.340974 -7.985068 -1.896123 -28.305086 0.000000 -0.000003 0.000000 -0.000001 -0.000003 0.000000 -92.338079 38.250835 -21.006281 109.250051 15.964983 1.973732 -25.285335 -7.656840 22.499080 0.000000 0.000000 0.000000 -0.000001 0.000001 0.000001 36.075051 -1.475307 -12.492413 -1.957387 5.375156 -0.991200 2.116132 5.078862 -0.821982 -2.574582 4.338560 -1.294693 -2.574592 4.338589 -1.294704 0.000002 0.000000 -0.000003 -2.574505 4.338588 -1.294701 -2.574550 4.338566 -1.294707 0.000000 -0.000001 0.000001 0.000002 0.000000 -0.000003 5.941489 -18.519078 -1.957349 -27.184718 20.945567 -31.616362 -81.078136 -81.172598 -70.319721 19.572884 -8.968059 11.330314 -2.637052 -7.745165 8.357714 4.850437 25.883360 0.310228 0.000002 -0.000002 -0.000005 13.403497 -1.931344 -0.362591 -0.144259 0.314255 -46.537296 -0.000000 0.000001 0.000000 8.600801 -0.764894 -14.454859 0.337744 0.740983 -48.772923 0.000001 0.000001 -0.000001 6.268061 2.785848 -30.963098 0.134958 0.420932 -52.428143 -0.000000 -0.000001 0.000000 -5.507717 7.394424 -31.738786 0.325629 0.344434 -72.129257 0.000003 -0.000003 0.000001 0.000001 0.000000 0.000003 0.000001 0.000000 0.000003 0.000000 -0.000000 0.000003 0.000002 0.000000 0.000002 0.000002 -0.000001 0.000001 0.000002 0.000000 0.000002 0.000002 -0.000000 0.000002 0.012703 27.801546 18.707810 -54.993910 -1.387953 14.818768 -31.712879 58.823030 27.684025 29.626711 11.680892 -21.865403 4.362878 -2.376071 -10.417854 6.382004 -22.873390 7.534685 -0.000002 -0.000002 0.000003 12.580753 5.223927 8.328371 -0.320487 -0.269471 55.178547 0.000001 0.000001 0.000001 6.735570 -0.416786 21.668222 0.630571 -0.710887 59.162743 -0.000003 -0.000002 -0.000000 3.077463 -6.824870 32.208710 0.532226 -0.321430 64.382203 0.000000 0.000001 0.000000 -7.813627 -10.789261 40.442984 0.564465 -0.208600 85.786923 -0.000002 0.000005 0.000001 -0.000001 0.000002 -0.000002 -0.000001 0.000000 -0.000001 -0.000001 0.000003 -0.000001 0.000002 -0.000001 -0.000002 0.000002 0.000000 -0.000001 0.000002 -0.000001 -0.000002 0.000002 -0.000000 0.000001 -0.000002 0.000001 -0.000001 -0.000002 0.000001 -0.000001 -0.000002 0.000001 -0.000001 -0.000002 0.000001 -0.000001 -0.000002 0.000001 -0.000001 -0.000002 0.000001 -0.000001 -0.000002 0.000001 -0.000001 0.000002 0.000000 -0.000001 0.000001 0.000001 -0.000001 
4.463406 59.335480 121.130615 28.430756 -56.659455 34.193361 0.000001 -0.000002 -0.000001 -58.128899 -48.618151 42.608523 84.766794 -2.432417 -43.219296 -9.130885 -1.903853 -27.567593 -0.000000 0.000001 -0.000000 0.000001 -0.000002 0.000001 -92.531885 38.287315 -20.986340 107.903363 15.761073 1.931548 -24.588300 -7.191555 23.321840 0.000000 0.000002 0.000000 -0.000001 0.000001 0.000001 35.756317 -1.830558 -13.973956 -2.211905 5.602687 -0.808047 1.905225 5.369619 -0.299753 -2.519093 4.412012 -1.283921 -2.519122 4.412023 -1.283935 -0.000001 0.000001 -0.000001 -2.519085 4.412014 -1.283940 -2.519091 4.412035 -1.283938 0.000000 0.000001 -0.000001 -0.000001 0.000001 -0.000001 6.664362 -18.263924 -2.232492 -27.495669 17.707791 -32.135115 -65.949247 -80.866612 -55.485209 19.983569 -7.423044 10.194812 -2.565575 -7.754364 8.363827 4.988652 26.393943 0.484764 0.000001 -0.000001 -0.000003 13.409942 -1.900490 -2.024957 -0.142135 0.315780 -49.012317 -0.000005 0.000002 0.000001 8.587738 -0.735841 -16.027771 0.347279 0.750534 -51.229383 0.000001 0.000000 0.000001 6.254696 2.818105 -32.426040 0.146157 0.429311 -54.763593 -0.000005 0.000001 0.000003 -5.551658 7.431832 -32.962418 0.336780 0.347382 -74.252503 0.000001 -0.000003 0.000001 0.000000 -0.000000 -0.000001 0.000000 -0.000000 -0.000001 0.000000 -0.000001 -0.000001 -0.000001 0.000001 -0.000003 -0.000001 -0.000000 -0.000003 -0.000001 0.000001 -0.000003 -0.000001 0.000001 -0.000002 0.392898 28.446674 18.972631 -54.816902 -0.739640 15.725261 -32.159543 59.955687 28.372001 30.216552 9.118561 -21.036114 4.934238 -2.758362 -10.624083 6.709267 -23.370553 7.689431 -0.000000 -0.000003 0.000004 12.835084 4.880005 10.435493 -0.342459 -0.295544 58.867071 -0.000000 0.000001 -0.000002 6.540493 -0.366034 24.090058 0.670346 -0.689399 62.625718 -0.000000 -0.000001 0.000000 2.533750 -6.923142 34.344384 0.559772 -0.307369 67.256367 -0.000001 -0.000001 -0.000002 -8.870802 -11.299488 42.195775 0.584025 -0.186612 88.957948 0.000003 0.000003 -0.000001 0.000002 0.000000 0.000002 0.000002 0.000001 0.000001 0.000002 0.000000 0.000001 0.000002 0.000002 -0.000000 0.000002 0.000002 0.000001 0.000002 0.000002 -0.000000 0.000002 0.000002 0.000003 -0.000002 0.000000 -0.000001 -0.000002 0.000000 -0.000001 -0.000002 0.000000 -0.000001 -0.000002 0.000000 -0.000001 -0.000002 0.000000 -0.000001 -0.000002 0.000000 -0.000001 -0.000002 0.000000 -0.000001 -0.000000 0.000000 0.000000 0.000001 -0.000002 -0.000001 
4.521231 59.596191 121.812668 29.484001 -56.904615 35.169259 0.000001 -0.000001 0.000001 -57.780655 -48.537547 42.768872 85.523749 -2.666711 -44.009822 -10.215971 -1.814747 -26.987382 0.000000 -0.000000 -0.000000 0.000002 0.000001 0.000001 -92.014259 38.242144 -21.512541 106.736452 15.495995 1.638245 -24.312333 -6.738439 24.035787 0.000000 0.000000 -0.000000 -0.000002 0.000000 0.000002 35.086491 -2.150720 -15.474854 -2.135788 5.671948 -0.623130 1.911755 5.457658 0.250405 -2.516202 4.458396 -1.239996 -2.516195 4.458405 -1.239977 0.000002 0.000002 -0.000004 -2.516114 4.458451 -1.240020 -2.516249 4.458333 -1.239977 -0.000001 -0.000002 -0.000001 0.000002 0.000002 -0.000002 7.124637 -18.651624 -2.187860 -27.932340 15.768871 -32.151951 -52.503797 -79.963634 -42.362763 19.874056 -6.198278 8.772593 -2.494156 -7.763601 8.369867 5.113594 26.867019 0.645995 -0.000000 -0.000003 -0.000003 13.421740 -1.871642 -3.652798 -0.140167 0.317251 -51.493920 -0.000002 0.000001 0.000000 8.575920 -0.708639 -17.530000 0.357456 0.759462 -53.634303 -0.000001 0.000000 -0.000000 6.241559 2.849643 -33.783004 0.157201 0.436972 -56.993349 0.000002 -0.000002 -0.000001 -5.595008 7.468763 -34.051167 0.347429 0.349623 -76.219768 0.000002 -0.000004 0.000003 0.000001 0.000001 -0.000001 0.000001 0.000001 -0.000001 0.000001 0.000000 -0.000001 -0.000000 0.000002 -0.000000 -0.000000 0.000001 -0.000001 -0.000000 0.000002 -0.000000 -0.000002 0.000002 0.000001 0.481423 28.460036 19.320850 -54.296240 -0.269317 17.138942 -33.555907 61.774744 30.127288 31.259553 6.241239 -19.766158 5.449430 -3.079963 -10.807719 7.007116 -23.827943 7.829296 0.000000 0.000000 -0.000000 13.115583 4.577875 12.470369 -0.362180 -0.324238 62.492727 0.000002 -0.000003 0.000001 6.340842 -0.331169 26.374425 0.707222 -0.664498 65.968863 -0.000003 -0.000002 0.000000 2.011720 -7.073364 36.304767 0.584423 -0.291943 69.957536 0.000000 0.000001 0.000003 -9.826577 -11.857220 43.719990 0.600162 -0.164789 91.846394 0.000001 0.000003 -0.000000 -0.000000 -0.000001 -0.000003 0.000001 -0.000001 -0.000000 -0.000002 0.000000 -0.000002 0.000001 -0.000001 0.000002 0.000001 0.000000 0.000001 0.000001 -0.000001 0.000002 0.000001 0.000000 0.000003 -0.000001 0.000000 -0.000001 -0.000001 0.000000 -0.000001 -0.000001 0.000000 -0.000001 -0.000001 0.000000 -0.000001 -0.000001 0.000000 -0.000001 -0.000001 0.000000 -0.000001 -0.000001 0.000000 -0.000001 -0.000001 -0.000001 -0.000002 0.000001 -0.000001 0.000001 
4.640938 59.959007 122.489029 29.933973 -56.743753 35.358680 -0.000000 -0.000000 -0.000000 -58.348250 -48.643716 42.034617 86.061558 -2.662318 -44.369308 -10.859589 -1.743954 -26.338408 -0.000000 -0.000002 0.000000 -0.000000 -0.000000 -0.000000 -90.764540 37.661407 -22.804649 105.529681 14.448299 1.210645 -24.230547 -5.644722 24.977635 0.000000 0.000001 -0.000000 -0.000001 0.000000 -0.000002 34.196787 -2.330175 -16.033388 -1.873215 5.586109 -0.555353 2.077609 5.368877 0.484100 -2.556040 4.476718 -1.187769 -2.556042 4.476718 -1.187763 -0.000000 -0.000003 -0.000001 -2.556020 4.476748 -1.187774 -2.555946 4.476705 -1.187762 -0.000003 -0.000001 -0.000000 -0.000000 -0.000003 0.000002 6.965545 -19.294374 -2.102315 -28.134867 15.072539 -32.000529 -44.720923 -79.216930 -34.966033 19.735941 -4.859208 6.786334 -2.423055 -7.772828 8.375888 5.223509 27.295348 0.791249 0.000003 -0.000001 0.000001 13.438338 -1.845274 -5.224454 -0.138561 0.318788 -53.948874 0.000000 -0.000001 -0.000000 8.565225 -0.683858 -18.940733 0.367951 0.767612 -55.955440 -0.000000 -0.000000 -0.000001 6.228794 2.879325 -35.013534 0.167726 0.443774 -59.086382 -0.000000 0.000001 -0.000000 -5.635506 7.502941 -34.986196 0.357205 0.351344 -78.001259 0.000001 -0.000002 -0.000000 0.000002 0.000001 0.000003 0.000002 0.000001 0.000003 0.000001 0.000001 0.000003 0.000002 -0.000003 -0.000003 0.000002 -0.000004 -0.000003 0.000002 -0.000003 -0.000003 0.000002 -0.000003 -0.000002 0.326741 28.032097 19.689723 -54.046071 0.106957 18.102745 -34.543118 63.125599 31.386406 32.050499 4.260135 -17.576674 5.901731 -3.333590 -10.969734 7.271088 -24.239511 7.950928 0.000000 -0.000004 -0.000001 13.414739 4.320657 14.409768 -0.379318 -0.354834 66.014912 -0.000002 -0.000002 -0.000000 6.140123 -0.310630 28.493886 0.740358 -0.636855 69.154422 -0.000000 -0.000002 0.000000 1.519332 -7.265419 38.063019 0.606021 -0.275868 72.451853 -0.000000 -0.000001 0.000001 -10.670378 -12.435092 44.989578 0.613027 -0.143987 94.411588 -0.000003 0.000002 -0.000002 0.000000 0.000002 0.000001 0.000000 0.000000 0.000003 -0.000001 0.000004 0.000000 0.000004 -0.000001 -0.000002 0.000005 -0.000002 -0.000001 0.000004 -0.000001 -0.000002 0.000005 -0.000002 0.000001 -0.000001 -0.000002 -0.000000 -0.000001 -0.000002 -0.000000 -0.000001 -0.000002 -0.000000 -0.000001 -0.000002 -0.000000 -0.000001 -0.000002 -0.000000 -0.000001 -0.000002 -0.000000 -0.000001 -0.000002 -0.000000 -0.000001 -0.000000 0.000000 -0.000000 -0.000000 -0.000000 
